HIERARCHY
ROOT Hips
{
  OFFSET -15.1727 94.6743 11.4298
  CHANNELS 6 Xposition Yposition Zposition Zrotation Xrotation Yrotation
  JOINT ToSpine
  {
    OFFSET -2.69724 7.43032 -0.144315
    CHANNELS 3 Zrotation Xrotation Yrotation
    JOINT Spine
    {
      OFFSET -0.0310711 10.7595 1.96963
      CHANNELS 3 Zrotation Xrotation Yrotation
      JOINT Spine1
      {
        OFFSET 13.1342 3.43533 0.764692
        CHANNELS 3 Zrotation Xrotation Yrotation
        JOINT Neck
        {
          OFFSET 29.8703 7.82586 -0.130764
          CHANNELS 3 Zrotation Xrotation Yrotation
          JOINT Head
          {
            OFFSET 9.52751 0.295786 -0.907742
            CHANNELS 3 Zrotation Xrotation Yrotation
            End Site
            {
              OFFSET 16.4037 0.713936 2.7358
            }
          }
        }
        JOINT LeftShoulder
        {
          OFFSET 27.5574 4.95586 2.47156
          CHANNELS 3 Zrotation Xrotation Yrotation
          JOINT LeftArm
          {
            OFFSET 1.20734 -0.998971 20.1238
            CHANNELS 3 Zrotation Xrotation Yrotation
            JOINT LeftForeArm
            {
              OFFSET 26.8049 -0.0536703 -0.155908
              CHANNELS 3 Zrotation Xrotation Yrotation
              JOINT LeftHand
              {
                OFFSET 26.6817 0 0.320147
                CHANNELS 3 Zrotation Xrotation Yrotation
                End Site
                {
                  OFFSET 18.6119 0 0.382219
                }
              }
            }
          }
        }
        JOINT RightShoulder
        {
          OFFSET 27.5927 4.71444 -2.65209
          CHANNELS 3 Zrotation Xrotation Yrotation
          JOINT RightArm
          {
            OFFSET 2.83739 -1.17114 -18.7564
            CHANNELS 3 Zrotation Xrotation Yrotation
            JOINT RightForeArm
            {
              OFFSET 28.839 -0.0548439 1.22491
              CHANNELS 3 Zrotation Xrotation Yrotation
              JOINT RightHand
              {
                OFFSET 26.5114 0 -0.101894
                CHANNELS 3 Zrotation Xrotation Yrotation
                End Site
                {
                  OFFSET 18.2168 0 0
                }
              }
            }
          }
        }
      }
    }
  }
  JOINT LeftUpLeg
  {
    OFFSET -4.76168 -1.9167 -10.2353
    CHANNELS 3 Zrotation Xrotation Yrotation
    JOINT LeftLeg
    {
      OFFSET 2.55951 -42.0585 -8.02213
      CHANNELS 3 Zrotation Xrotation Yrotation
      JOINT LeftFoot
      {
        OFFSET 3.16357 -42.5282 -3.95426
        CHANNELS 3 Zrotation Xrotation Yrotation
        JOINT LeftToeBase
        {
          OFFSET 0.346054 -6.02161 12.8035
          CHANNELS 3 Zrotation Xrotation Yrotation
          End Site
          {
            OFFSET 0.134235 -1.35082 5.13018
          }
        }
      }
    }
  }
  JOINT RightUpLeg
  {
    OFFSET -4.94151 -1.41743 10.6446
    CHANNELS 3 Zrotation Xrotation Yrotation
    JOINT RightLeg
    {
      OFFSET -2.56294 -42.0364 -7.94377
      CHANNELS 3 Zrotation Xrotation Yrotation
      JOINT RightFoot
      {
        OFFSET -3.0952 -42.555 -4.02241
        CHANNELS 3 Zrotation Xrotation Yrotation
        JOINT RightToeBase
        {
          OFFSET -0.0828122 -6.13587 12.8035
          CHANNELS 3 Zrotation Xrotation Yrotation
          End Site
          {
            OFFSET -0.131328 -1.35082 5.13018
          }
        }
      }
    }
  }
}
MOTION
Frames:	15
Frame Time:	0.0333333
-8.4535 89.5615 -0.0315386 60.6499 -60.5395 -29.3478 -70.1915 0 88.8779 74.4092 71.1375 5.73818 5.0736 17.9186 11.6631 -127.049 30.5132 174.261 -174.874 69.8855 -145.966 0.896059 -8.60153 2.34837 -96.9369 38.7552 -164.219 23.0916 7.70349 -71.9507 0.420958 0.000568959 0.358661 -2.00653 8.58535 37.5445 -58.5347 -27.3698 110.976 18.2074 0.40437 90.8311 0.58676 0.000330496 0.0646651 -55.2911 6.29199 102.286 -4.88549 52.5908 -10.2577 0.57955 -22.8948 -1.91102 7.28806 -16.8681 24.6352 -30.3307 -14.4928 98.6162 -0.016042 31.2081 15.3628 2.07444 13.1602 -1.37957 0.971059 -4.53138 -2.94953 
-9.82163 90.2768 1.6135 63.623 -54.8661 -24.4058 -70.1915 0 88.8779 73.2389 71.6649 7.75604 5.54437 18.7991 11.0999 -128.016 30.9253 173.182 -177.145 70.3986 -144.861 1.148 -11.7955 -1.64678 -82.7048 37.578 -170.787 13.9689 3.58555 -75.3143 0.420958 0.000568959 0.358661 -1.70772 8.43451 34.3748 -67.887 -27.1063 111.643 14.0109 0.659365 92.4553 0.58676 0.000330496 0.0646651 -54.6138 7.94746 98.899 -3.54853 49.4761 -5.69625 -1.87138 -23.5213 -2.15398 5.2747 -12.4073 9.55542 -33.1329 -16.3738 91.4586 -1.71404 29.2605 23.2759 3.87218 16.3826 -2.15604 1.63641 -12.1683 -3.57089 
-11.1044 91.1288 3.68109 66.086 -49.0338 -20.8586 -70.1915 0 88.8779 72.1618 71.9849 9.67782 6.43278 19.8883 8.62257 -127.494 30.4803 169.948 -175.339 70.8462 -146.262 1.17239 -15.2507 -5.41622 -71.4912 34.3287 -172.023 12.7558 2.14816 -79.9946 0.420958 0.000568959 0.358661 -1.42752 8.32988 31.1645 -79.8396 -28.5259 109.313 11.6153 0.990609 94.5538 0.58676 0.000330496 0.0646651 -54.2955 8.17543 95.1553 -3.51217 46.1519 -8.7362 -1.58583 -19.6381 -1.75408 6.01705 -13.9999 11.3711 -36.0933 -18.7779 89.0547 -1.39479 28.771 15.4331 0.172997 14.0955 -0.964751 1.399 -13.4571 6.48975 
-12.6943 91.7972 5.77457 66.8771 -43.3666 -18.7853 -70.1915 0 88.8779 72.9799 71.8962 9.49873 6.10622 20.4123 6.27308 -127.285 30.2233 168 -177.405 70.914 -144.456 1.00016 -16.6556 -9.20258 -62.7672 30.2989 -168.303 17.0517 1.40095 -84.7916 0.420958 0.000568959 0.358661 -1.28644 8.56356 28.9223 -91.7761 -28.6797 105.039 9.45736 1.08324 96.1921 0.58676 0.000330496 0.0646651 -52.7144 9.0914 92.4738 -3.41897 43.3159 -10.9557 -0.817026 -14.6594 -1.25554 7.38331 -16.1977 11.1491 -38.0564 -20.2556 84.6804 -1.10623 28.5 15.6993 1.15743 12.569 -1.08219 1.89942 -15.4789 -0.265559 
-14.3306 92.1085 8.01482 67.4629 -38.1964 -16.4129 -70.1915 0 88.8779 76.5476 71.6363 7.25557 5.32788 20.6034 3.97938 -126.936 30.4352 167.261 178.35 70.9449 -140.657 0.645976 -17.6495 -14.2971 -57.4499 25.5525 -160.247 19.142 0.350702 -88.1987 0.420958 0.000568959 0.358661 -1.33625 8.66947 29.3054 -102.616 -23.9857 100.508 12.4104 1.48668 96.4492 0.58676 0.000330496 0.0646651 -50.4153 11.0191 90.7348 -3.30687 41.802 -11.6981 -1.85913 -12.4224 -1.04002 6.7925 -15.0631 8.46823 -39.6071 -20.389 82.9909 -0.335908 29.474 8.40876 0.293658 7.82034 -0.524431 1.45126 -13.0267 2.61662 
-15.8925 92.302 10.1723 68.1103 -33.7138 -14.2427 -70.1915 0 88.8779 79.8886 72.0402 3.63829 4.10136 20.8407 4.21688 -125.378 30.8028 165.388 175.518 71.5465 -137.65 0.316354 -17.9032 -18.8424 -54.524 21.7023 -152.42 18.6897 -0.0371117 -89.5285 0.420958 0.000568959 0.358661 -1.41204 8.51082 30.5736 -111.256 -16.9206 95.9601 14.4811 1.7118 96.332 0.58676 0.000330496 0.0646651 -47.843 13.7438 92.0954 -3.32205 41.4543 -12.3457 -3.0629 -10.6755 -0.828172 5.49197 -13.0368 10.0935 -40.8524 -20.0761 81.6735 0.357577 30.9359 3.0842 -2.48502 4.70626 0.223667 1.39628 -13.2891 4.59901 
-17.2675 92.2625 11.7854 68.8502 -30.0408 -12.2918 -70.1915 0 88.8779 85.4508 72.4966 -2.4689 2.81325 20.9052 5.45803 -124.488 31.63 164.465 169.76 71.9171 -131.92 0.0385205 -17.7688 -23.066 -53.533 19.4081 -144.882 20.5257 -0.0688827 -89.4874 0.420958 0.000568959 0.358661 -1.5355 8.67173 31.7038 -117.772 -9.69459 92.5087 13.0767 1.29953 95.516 0.58676 0.000330496 0.0646651 -44.839 15.9352 94.5781 -3.48482 43.5103 -11.7828 -3.49148 -9.33046 -0.6635 5.3019 -13.2812 15.8156 -41.4694 -19.7544 80.7546 0.768921 33.2325 2.17547 -1.04087 1.39661 0.181078 1.47147 -12.1447 0.20744 
-18.4609 92.2569 13.025 68.8204 -26.9844 -10.5885 -70.1915 0 88.8779 89.6119 72.5049 -5.64105 2.46554 20.9549 5.26201 -124.455 32.2925 162.473 168.829 73.0389 -131.423 -0.0687823 -17.4454 -25.3249 -53.3348 18.9578 -139.9 26.3597 0.258793 -88.7407 0.420958 0.000568959 0.358661 -1.70005 8.65863 33.6873 -122.561 -2.67672 90.1642 12.7348 0.956751 92.8777 0.58676 0.000330496 0.0646651 -41.1185 17.4131 95.8688 -4.18499 47.9244 -12.674 -4.02868 -10.5784 -0.782081 5.14692 -13.1791 17.0415 -41.6208 -19.1298 79.5209 1.20488 34.5332 -0.817815 -1.55651 -0.831551 0.401114 1.23632 -11.0883 1.58083 
-19.4674 92.1129 13.8285 68.5628 -24.7404 -9.52554 -70.1915 0 88.8779 91.6548 72.4306 -7.21205 2.72108 20.9322 5.03662 -124.786 32.3211 159.563 171.937 74.2592 -134.917 0.0772945 -16.5856 -25.1249 -53.1127 20.6539 -137.871 28.2395 1.2409 -87.0119 0.420958 0.000568959 0.358661 -1.78051 8.24269 35.7736 -125.843 1.99819 91.1241 13.2922 -0.548721 89.1251 0.58676 0.000330496 0.0646651 -38.8989 17.2809 96.3886 -4.98585 51.0652 -15.536 -4.23967 -11.7438 -0.913254 5.44048 -13.446 15.3385 -40.9546 -18.7407 78.6579 1.32107 36.1528 -1.74052 -2.44976 -2.04656 0.576257 1.38828 -11.4274 -0.00340998 
-20.1837 91.8338 14.4042 68.1724 -22.9247 -8.87109 -70.1915 0 88.8779 90.7992 72.5425 -7.0628 2.76625 20.6748 6.18472 -123.535 32.1987 156.772 174.152 75.257 -136.655 0.135948 -16.3074 -24.8293 -52.9078 22.8859 -136.452 21.4471 1.8664 -84.6429 0.420958 0.000568959 0.358661 -1.83761 7.6232 38.4402 -127.754 5.73519 91.7172 13.5243 -1.27858 83.7624 0.58676 0.000330496 0.0646651 -38.0872 16.2808 96.2578 -5.269 51.6782 -16.6848 -3.775 -12.0508 -0.955233 5.59753 -13.6079 14.3585 -39.8401 -18.5162 78.3947 1.2669 38.0737 -2.70455 -4.20144 -3.02137 0.816123 1.58316 -12.4758 -1.25102 
-20.5196 91.7157 14.7112 67.7516 -22.1418 -7.94137 -70.1915 0 88.8779 88.6786 72.6799 -4.9176 3.11333 20.4699 7.25252 -121.81 32.2542 154.753 174.854 76.1512 -136.799 0.14545 -16.1107 -25.1956 -52.6989 24.0872 -135.346 24.8018 2.94712 -83.0061 0.420958 0.000568959 0.358661 -1.94655 7.31963 40.9829 -128.897 7.57523 92.9788 13.7492 -2.98426 77.874 0.58676 0.000330496 0.0646651 -38.6318 16.3432 95.9125 -4.30041 48.863 -12.4721 -3.11988 -14.3892 -1.23909 3.83167 -10.1931 9.62358 -39.6266 -18.2689 76.5603 1.33183 38.4738 -2.3017 -4.53349 -3.43761 0.865099 1.5933 -12.4892 -1.38143 
-20.8076 91.5848 14.8297 67.5547 -21.9067 -7.17428 -70.1915 0 88.8779 86.5867 72.8297 -3.20153 3.69378 20.252 8.47784 -121.541 32.7211 153.775 173.249 76.807 -135.951 0.146716 -15.9153 -25.7617 -53.3792 23.7383 -134.913 25.139 3.53903 -81.8795 0.420958 0.000568959 0.358661 -2.04312 7.26393 42.4796 -129.936 7.02134 93.5686 13.9686 -4.72656 71.5956 0.58676 0.000330496 0.0646651 -38.7138 16.5861 94.7454 -3.9231 47.6243 -10.7747 -4.27005 -15.9304 -1.41701 3.20856 -7.97681 4.35584 -39.4489 -18.1009 75.0865 1.45065 38.8908 -1.58469 -4.47029 -3.67136 0.869661 1.61431 -12.4573 -1.88932 
-21.1769 91.1719 14.7664 67.2594 -21.9224 -6.74758 -70.1915 0 88.8779 87.575 73.1905 -4.72104 3.11071 20.2391 9.87215 -122.125 33.7393 153.238 170.68 77.6637 -134.282 0.0576568 -16.2845 -26.283 -53.9315 22.7672 -133.982 24.9824 2.76905 -83.4159 0.420958 0.000568959 0.358661 -2.03917 6.99734 43.5452 -130.856 5.90348 92.1309 11.8764 -4.46382 69.6511 0.58676 0.000330496 0.0646651 -36.5347 16.9637 93.4408 -4.33116 50.0603 -10.9907 -2.70244 -14.9247 -1.28848 3.77585 -9.50044 6.52949 -38.216 -18.1457 74.5122 1.70975 40.6321 -0.552072 -3.86402 -4.43017 0.841381 1.67261 -11.8296 -3.91206 
-21.5869 90.9516 14.8158 67.4675 -22.1964 -6.84481 -70.1915 0 88.8779 91.5712 73.4801 -9.16123 2.19653 20.5933 9.83298 -122.941 34.81 153.521 165.999 78.0565 -130 0.151479 -16.08 -25.1985 -53.7491 22.5497 -134.687 22.7939 1.58525 -85.5721 0.420958 0.000568959 0.358661 -2.1595 6.86312 45.7759 -132.024 5.8026 89.5839 11.224 -3.26778 73.9081 0.58676 0.000330496 0.0646651 -36.2707 17.7561 94.352 -4.50416 50.6746 -11.5263 -2.65077 -15.0527 -1.30284 3.64995 -9.15246 5.89763 -37.7987 -18.4224 74.0485 1.94759 41.4512 0.816561 -5.71789 -4.54933 1.01473 1.86101 -12.5558 -6.35159 
-21.6368 90.8247 14.7562 67.7916 -22.7471 -7.47353 -70.1915 0 88.8779 90.7954 73.6647 -9.19431 2.38325 20.7808 9.77728 -123.329 35.133 155.379 162.29 77.3081 -126.075 0.332437 -15.2331 -24.0506 -53.3005 22.3665 -136.526 21.1778 1.50009 -85.4617 0.420958 0.000568959 0.358661 -2.10668 6.51938 46.6606 -132.355 4.48848 88.2824 11.2788 -2.84086 75.9616 0.58676 0.000330496 0.0646651 -36.8753 18.0736 96.0101 -4.60161 50.9759 -11.8396 -2.34964 -15.3325 -1.33086 3.40058 -8.69129 5.89786 -37.5345 -19.657 73.3682 2.19792 42.3261 2.21275 -5.92442 -5.25879 1.05216 1.83776 -12.3157 -6.17503 
